# xmcd
#
# Track frame offsets: 
#        150
#        15112
#        27471
#        39305
#        53364
#        65977
#        77586
#        90322
#        104901
#        118430
#        132281
#        145247
#        157268
#        168824
#        181553
#        193931
#        207278
#        219206
#        228589
#        242250
#        254168
#        264896
#        277087
#        287144
#        298220
#
# Disc length: 4141 seconds
#
# Revision: 0
# Processed by: cddbd v1.5.2PL0 Copyright (c) Steve Scherf et al.
# Submitted via: ExactAudioCopyFreeDBPlugin 1.0
#
DISCID=72102b19
DTITLE=Maybelle, Big - Big Maybelle
DYEAR=1954
DGENRE=
TTITLE0=Just Want Your Love
TTITLE1=Gabbin' Blues
TTITLE2=My Country Man
TTITLE3=Rain Down Rain
TTITLE4=Way Back Home
TTITLE5=Stay Away from My Sam
TTITLE6=Jinny Mule
TTITLE7=Maybelle's Blues
TTITLE8=I've Got a Feeling
TTITLE9=You'll Never Know
TTITLE10=Hound Dog
TTITLE11=Rock-a-Bye Baby
TTITLE12=Mischievous Boogie
TTITLE13=Don't Talk Back
TTITLE14=You Don't Move Me No More
TTITLE15=Just Can't Help Myself
TTITLE16=Stop a-hoppin' on Me
TTITLE17=They Call Me Big Mama
TTITLE18=Walking Blues
TTITLE19=I Smell a Rat
TTITLE20=I Ain't No Fool Either
TTITLE21=Willie Mae's Blues
TTITLE22=Hard Times
TTITLE23=Big Mama's Coming Home
TTITLE24=The Fish
EXTD=
EXTT0=
EXTT1=
EXTT2=
EXTT3=
EXTT4=
EXTT5=
EXTT6=
EXTT7=
EXTT8=
EXTT9=
EXTT10=
EXTT11=
EXTT12=
EXTT13=
EXTT14=
EXTT15=
EXTT16=
EXTT17=
EXTT18=
EXTT19=
EXTT20=
EXTT21=
EXTT22=
EXTT23=
EXTT24=
PLAYORDER=
